<?xml version="1.0" standalone="no"?>
<!DOCTYPE svg PUBLIC "-//W3C//DTD SVG 20010904//EN"
 "http://www.w3.org/TR/2001/REC-SVG-20010904/DTD/svg10.dtd">
<svg xmlns="http://www.w3.org/2000/svg" xml:space="preserve" width="130.3mm" height="33.5139mm" version="1.1" style="shape-rendering:geometricPrecision; text-rendering:geometricPrecision; image-rendering:optimizeQuality; fill-rule:evenodd; clip-rule:evenodd"
viewBox="0 0 10631 2734"
 xmlns:xlink="http://www.w3.org/1999/xlink">
<metadata>
Created by potrace 1.15, written by Peter Selinger 2001-2017
</metadata>
<g transform="translate(0.000000,404.000000) scale(0.100000,-0.100000)"
fill="#000000" stroke="none">
<path d="M460 3733 c-79 -3 -258 -22 -282 -29 -17 -5 -18 -48 -18 -724 l0
-718 27 -6 c133 -28 413 -41 551 -27 239 25 390 88 517 216 60 60 90 99 117
155 63 128 73 182 73 385 0 158 -3 190 -23 260 -34 118 -77 190 -162 276 -122
124 -277 187 -509 209 -101 10 -142 10 -291 3z m338 -298 c206 -49 312 -203
312 -455 0 -190 -76 -338 -208 -408 -83 -44 -168 -62 -299 -62 l-113 0 0 463
c0 255 3 467 7 470 12 13 238 7 301 -8z"/>
<path d="M1730 2980 l0 -740 525 0 525 0 0 140 0 140 -357 2 -358 3 0 175 0
175 293 3 292 2 0 135 0 135 -292 2 -293 3 -3 143 -3 142 336 0 335 0 0 140 0
140 -500 0 -500 0 0 -740z"/>
<path d="M2900 3714 c0 -15 149 -428 227 -629 93 -238 231 -565 311 -737 l51
-108 159 0 160 0 57 128 c146 322 313 739 438 1087 42 116 80 222 86 238 l11
27 -179 0 -179 0 -48 -142 c-62 -188 -218 -627 -285 -803 l-53 -139 -27 59
c-34 76 -199 535 -293 812 l-71 213 -182 0 c-101 0 -183 -3 -183 -6z"/>
</g>
</svg>
